<svg xmlns="http://www.w3.org/2000/svg" width="211.16" height="35" viewBox="0 0 211.16 35"><rect class="svg__rect" x="0" y="0" width="115.31" height="35" fill="#606060"/><rect class="svg__rect" x="113.31" y="0" width="97.85" height="35" fill="#000000"/><path class="svg__text" d="M15.69 22L14.22 22L14.22 13.47L16.14 13.47L18.60 20.01L21.06 13.47L22.97 13.47L22.97 22L21.49 22L21.49 19.19L21.64 15.43L19.12 22L18.06 22L15.55 15.43L15.69 19.19L15.69 22ZM28.49 22L26.95 22L30.17 13.47L31.50 13.47L34.73 22L33.18 22L32.49 20.01L29.18 20.01L28.49 22ZM30.83 15.28L29.60 18.82L32.07 18.82L30.83 15.28ZM41.14 22L38.69 22L38.69 13.47L41.21 13.47Q42.34 13.47 43.21 13.97Q44.09 14.48 44.57 15.40Q45.05 16.33 45.05 17.52L45.05 17.52L45.05 17.95Q45.05 19.16 44.57 20.08Q44.08 21.00 43.19 21.50Q42.30 22 41.14 22L41.14 22ZM40.17 14.66L40.17 20.82L41.14 20.82Q42.30 20.82 42.93 20.09Q43.55 19.36 43.56 17.99L43.56 17.99L43.56 17.52Q43.56 16.13 42.96 15.40Q42.35 14.66 41.21 14.66L41.21 14.66L40.17 14.66ZM55.09 22L49.51 22L49.51 13.47L55.05 13.47L55.05 14.66L51.00 14.66L51.00 17.02L54.50 17.02L54.50 18.19L51.00 18.19L51.00 20.82L55.09 20.82L55.09 22ZM66.65 22L64.68 13.47L66.15 13.47L67.47 19.88L69.10 13.47L70.34 13.47L71.96 19.89L73.27 13.47L74.74 13.47L72.77 22L71.35 22L69.73 15.77L68.07 22L66.65 22ZM80.38 22L78.90 22L78.90 13.47L80.38 13.47L80.38 22ZM86.87 14.66L84.23 14.66L84.23 13.47L91.00 13.47L91.00 14.66L88.34 14.66L88.34 22L86.87 22L86.87 14.66ZM96.24 22L94.75 22L94.75 13.47L96.24 13.47L96.24 17.02L100.05 17.02L100.05 13.47L101.53 13.47L101.53 22L100.05 22L100.05 18.21L96.24 18.21L96.24 22Z" fill="#FFFFFF"/><path class="svg__text" d="M129.83 22L127.50 22L127.50 13.60L129.45 13.60L133.16 18.07L133.16 13.60L135.49 13.60L135.49 22L133.54 22L129.83 17.52L129.83 22ZM147.40 22L140.65 22L140.65 13.60L147.24 13.60L147.24 15.44L143.01 15.44L143.01 16.85L146.74 16.85L146.74 18.63L143.01 18.63L143.01 20.17L147.40 20.17L147.40 22ZM154.05 22L151.34 22L154.40 17.75L151.47 13.60L154.15 13.60L155.83 16.02L157.48 13.60L160.05 13.60L157.12 17.66L160.25 22L157.51 22L155.77 19.40L154.05 22ZM166.32 15.48L163.74 15.48L163.74 13.60L171.26 13.60L171.26 15.48L168.70 15.48L168.70 22L166.32 22L166.32 15.48ZM175.12 20.75L175.12 20.75Q175.12 20.15 175.51 19.78Q175.90 19.41 176.49 19.41L176.49 19.41Q177.09 19.41 177.47 19.78Q177.85 20.15 177.85 20.75L177.85 20.75Q177.85 21.34 177.46 21.72Q177.07 22.11 176.49 22.11L176.49 22.11Q175.91 22.11 175.51 21.72Q175.12 21.34 175.12 20.75ZM181.43 20.93L181.43 20.93L182.73 19.40Q183.40 20.27 184.17 20.27L184.17 20.27Q184.18 20.27 184.18 20.27L184.18 20.27Q184.70 20.27 184.97 19.96Q185.24 19.65 185.24 19.05L185.24 19.05L185.24 15.44L182.34 15.44L182.34 13.60L187.59 13.60L187.59 18.91Q187.59 20.54 186.77 21.36Q185.95 22.17 184.35 22.17L184.35 22.17Q183.43 22.17 182.67 21.85Q181.91 21.53 181.43 20.93ZM192.09 21.24L192.09 21.24L192.87 19.49Q193.43 19.86 194.18 20.09Q194.92 20.32 195.64 20.32L195.64 20.32Q197.01 20.32 197.01 19.64L197.01 19.64Q197.01 19.28 196.62 19.11Q196.23 18.93 195.37 18.74L195.37 18.74Q194.42 18.53 193.78 18.30Q193.15 18.06 192.69 17.55Q192.24 17.03 192.24 16.16L192.24 16.16Q192.24 15.39 192.66 14.77Q193.08 14.15 193.91 13.79Q194.75 13.43 195.95 13.43L195.95 13.43Q196.78 13.43 197.58 13.62Q198.39 13.80 199.01 14.17L199.01 14.17L198.27 15.93Q197.07 15.28 195.94 15.28L195.94 15.28Q195.23 15.28 194.91 15.49Q194.59 15.70 194.59 16.04L194.59 16.04Q194.59 16.37 194.97 16.54Q195.36 16.71 196.20 16.89L196.20 16.89Q197.17 17.10 197.80 17.33Q198.43 17.56 198.89 18.07Q199.35 18.58 199.35 19.46L199.35 19.46Q199.35 20.21 198.93 20.83Q198.51 21.44 197.67 21.80Q196.83 22.17 195.63 22.17L195.63 22.17Q194.61 22.17 193.65 21.92Q192.69 21.67 192.09 21.24Z" fill="#FFFFFF" x="126.31"/></svg>