<svg xmlns="http://www.w3.org/2000/svg" width="363.08" height="35" viewBox="0 0 363.08 35"><rect class="svg__rect" x="0" y="0" width="115.31" height="35" fill="#EA4560"/><rect class="svg__rect" x="113.31" y="0" width="249.76999999999998" height="35" fill="#C13B3A"/><path class="svg__text" d="M15.69 22L14.22 22L14.22 13.47L16.14 13.47L18.60 20.01L21.06 13.47L22.97 13.47L22.97 22L21.49 22L21.49 19.19L21.64 15.43L19.12 22L18.06 22L15.55 15.43L15.69 19.19L15.69 22ZM28.49 22L26.95 22L30.17 13.47L31.50 13.47L34.73 22L33.18 22L32.49 20.01L29.18 20.01L28.49 22ZM30.83 15.28L29.60 18.82L32.07 18.82L30.83 15.28ZM41.14 22L38.69 22L38.69 13.47L41.21 13.47Q42.34 13.47 43.21 13.97Q44.09 14.48 44.57 15.40Q45.05 16.33 45.05 17.52L45.05 17.52L45.05 17.95Q45.05 19.16 44.57 20.08Q44.08 21.00 43.19 21.50Q42.30 22 41.14 22L41.14 22ZM40.17 14.66L40.17 20.82L41.14 20.82Q42.30 20.82 42.93 20.09Q43.55 19.36 43.56 17.99L43.56 17.99L43.56 17.52Q43.56 16.13 42.96 15.40Q42.35 14.66 41.21 14.66L41.21 14.66L40.17 14.66ZM55.09 22L49.51 22L49.51 13.47L55.05 13.47L55.05 14.66L51.00 14.66L51.00 17.02L54.50 17.02L54.50 18.19L51.00 18.19L51.00 20.82L55.09 20.82L55.09 22ZM66.65 22L64.68 13.47L66.15 13.47L67.47 19.88L69.10 13.47L70.34 13.47L71.96 19.89L73.27 13.47L74.74 13.47L72.77 22L71.35 22L69.73 15.77L68.07 22L66.65 22ZM80.38 22L78.90 22L78.90 13.47L80.38 13.47L80.38 22ZM86.87 14.66L84.23 14.66L84.23 13.47L91.00 13.47L91.00 14.66L88.34 14.66L88.34 22L86.87 22L86.87 14.66ZM96.24 22L94.75 22L94.75 13.47L96.24 13.47L96.24 17.02L100.05 17.02L100.05 13.47L101.53 13.47L101.53 22L100.05 22L100.05 18.21L96.24 18.21L96.24 22Z" fill="#FFFFFF"/><path class="svg__text" d="M128.92 22L126.49 22L130.20 13.60L132.54 13.60L136.26 22L133.79 22L133.13 20.37L129.58 20.37L128.92 22ZM131.35 15.93L130.27 18.61L132.43 18.61L131.35 15.93ZM142.20 15.48L139.62 15.48L139.62 13.60L147.14 13.60L147.14 15.48L144.58 15.48L144.58 22L142.20 22L142.20 15.48ZM151.09 17.80L151.09 17.80Q151.09 16.55 151.69 15.55Q152.29 14.56 153.36 14.00Q154.42 13.43 155.75 13.43L155.75 13.43Q157.08 13.43 158.15 14.00Q159.21 14.56 159.82 15.55Q160.42 16.55 160.42 17.80L160.42 17.80Q160.42 19.05 159.82 20.04Q159.21 21.04 158.15 21.60Q157.09 22.17 155.75 22.17L155.75 22.17Q154.42 22.17 153.36 21.60Q152.29 21.04 151.69 20.04Q151.09 19.05 151.09 17.80ZM153.48 17.80L153.48 17.80Q153.48 18.51 153.79 19.05Q154.09 19.60 154.60 19.90Q155.12 20.20 155.75 20.20L155.75 20.20Q156.39 20.20 156.91 19.90Q157.42 19.60 157.72 19.05Q158.02 18.51 158.02 17.80L158.02 17.80Q158.02 17.09 157.72 16.54Q157.42 16 156.91 15.70Q156.39 15.40 155.75 15.40L155.75 15.40Q155.11 15.40 154.60 15.70Q154.09 16 153.79 16.54Q153.48 17.09 153.48 17.80ZM167.35 22L165.15 22L165.15 13.60L167.11 13.60L170.06 18.45L172.94 13.60L174.89 13.60L174.92 22L172.74 22L172.71 17.55L170.55 21.17L169.50 21.17L167.35 17.67L167.35 22ZM182.46 22L180.08 22L180.08 13.60L182.46 13.60L182.46 22ZM187.20 17.80L187.20 17.80Q187.20 16.54 187.80 15.54Q188.40 14.55 189.45 13.99Q190.50 13.43 191.82 13.43L191.82 13.43Q192.98 13.43 193.90 13.84Q194.82 14.25 195.44 15.02L195.44 15.02L193.93 16.39Q193.11 15.40 191.95 15.40L191.95 15.40Q191.26 15.40 190.73 15.70Q190.19 16 189.90 16.54Q189.60 17.09 189.60 17.80L189.60 17.80Q189.60 18.51 189.90 19.05Q190.19 19.60 190.73 19.90Q191.26 20.20 191.95 20.20L191.95 20.20Q193.11 20.20 193.93 19.22L193.93 19.22L195.44 20.58Q194.83 21.35 193.90 21.76Q192.98 22.17 191.82 22.17L191.82 22.17Q190.50 22.17 189.45 21.61Q188.40 21.05 187.80 20.05Q187.20 19.06 187.20 17.80ZM210.92 22L206.95 22L206.95 13.60L210.92 13.60Q212.30 13.60 213.37 14.12Q214.43 14.63 215.02 15.58Q215.61 16.53 215.61 17.80L215.61 17.80Q215.61 19.07 215.02 20.02Q214.43 20.97 213.37 21.48Q212.30 22 210.92 22L210.92 22ZM209.32 15.50L209.32 20.10L210.82 20.10Q211.90 20.10 212.56 19.49Q213.21 18.88 213.21 17.80L213.21 17.80Q213.21 16.72 212.56 16.11Q211.90 15.50 210.82 15.50L210.82 15.50L209.32 15.50ZM227.08 22L220.34 22L220.34 13.60L226.93 13.60L226.93 15.44L222.70 15.44L222.70 16.85L226.43 16.85L226.43 18.63L222.70 18.63L222.70 20.17L227.08 20.17L227.08 22ZM231.30 21.24L231.30 21.24L232.08 19.49Q232.64 19.86 233.39 20.09Q234.13 20.32 234.85 20.32L234.85 20.32Q236.22 20.32 236.22 19.64L236.22 19.64Q236.22 19.28 235.83 19.11Q235.45 18.93 234.58 18.74L234.58 18.74Q233.63 18.53 232.99 18.30Q232.36 18.06 231.90 17.55Q231.45 17.03 231.45 16.16L231.45 16.16Q231.45 15.39 231.87 14.77Q232.29 14.15 233.12 13.79Q233.96 13.43 235.16 13.43L235.16 13.43Q235.99 13.43 236.80 13.62Q237.60 13.80 238.22 14.17L238.22 14.17L237.48 15.93Q236.28 15.28 235.15 15.28L235.15 15.28Q234.44 15.28 234.12 15.49Q233.80 15.70 233.80 16.04L233.80 16.04Q233.80 16.37 234.18 16.54Q234.57 16.71 235.42 16.89L235.42 16.89Q236.38 17.10 237.01 17.33Q237.64 17.56 238.10 18.07Q238.56 18.58 238.56 19.46L238.56 19.46Q238.56 20.21 238.14 20.83Q237.72 21.44 236.88 21.80Q236.04 22.17 234.84 22.17L234.84 22.17Q233.82 22.17 232.86 21.92Q231.90 21.67 231.30 21.24ZM245.52 22L243.14 22L243.14 13.60L245.52 13.60L245.52 22ZM250.26 17.80L250.26 17.80Q250.26 16.54 250.86 15.54Q251.46 14.55 252.53 13.99Q253.60 13.43 254.94 13.43L254.94 13.43Q256.12 13.43 257.05 13.83Q257.99 14.22 258.61 14.97L258.61 14.97L257.10 16.33Q256.26 15.40 255.08 15.40L255.08 15.40Q255.07 15.40 255.06 15.40L255.06 15.40Q253.98 15.40 253.32 16.06Q252.66 16.71 252.66 17.80L252.66 17.80Q252.66 18.50 252.96 19.04Q253.26 19.59 253.80 19.89Q254.34 20.20 255.04 20.20L255.04 20.20Q255.72 20.20 256.32 19.93L256.32 19.93L256.32 17.62L258.42 17.62L258.42 21.10Q257.70 21.61 256.76 21.89Q255.83 22.17 254.89 22.17L254.89 22.17Q253.57 22.17 252.52 21.61Q251.46 21.05 250.86 20.05Q250.26 19.06 250.26 17.80ZM265.74 22L263.41 22L263.41 13.60L265.37 13.60L269.08 18.07L269.08 13.60L271.40 13.60L271.40 22L269.45 22L265.74 17.52L265.74 22ZM282.95 21.24L282.95 21.24L283.73 19.49Q284.29 19.86 285.04 20.09Q285.78 20.32 286.50 20.32L286.50 20.32Q287.87 20.32 287.87 19.64L287.87 19.64Q287.87 19.28 287.49 19.11Q287.10 18.93 286.23 18.74L286.23 18.74Q285.28 18.53 284.64 18.30Q284.01 18.06 283.55 17.55Q283.10 17.03 283.10 16.16L283.10 16.16Q283.10 15.39 283.52 14.77Q283.94 14.15 284.77 13.79Q285.61 13.43 286.81 13.43L286.81 13.43Q287.64 13.43 288.45 13.62Q289.25 13.80 289.87 14.17L289.87 14.17L289.13 15.93Q287.93 15.28 286.80 15.28L286.80 15.28Q286.09 15.28 285.77 15.49Q285.45 15.70 285.45 16.04L285.45 16.04Q285.45 16.37 285.83 16.54Q286.22 16.71 287.07 16.89L287.07 16.89Q288.03 17.10 288.66 17.33Q289.29 17.56 289.75 18.07Q290.21 18.58 290.21 19.46L290.21 19.46Q290.21 20.21 289.79 20.83Q289.37 21.44 288.53 21.80Q287.69 22.17 286.49 22.17L286.49 22.17Q285.47 22.17 284.51 21.92Q283.55 21.67 282.95 21.24ZM296.92 18.95L293.71 13.60L296.22 13.60L298.21 16.94L300.20 13.60L302.51 13.60L299.29 18.99L299.29 22L296.92 22L296.92 18.95ZM306.00 21.24L306.00 21.24L306.78 19.49Q307.35 19.86 308.09 20.09Q308.83 20.32 309.55 20.32L309.55 20.32Q310.92 20.32 310.93 19.64L310.93 19.64Q310.93 19.28 310.54 19.11Q310.15 18.93 309.28 18.74L309.28 18.74Q308.33 18.53 307.69 18.30Q307.06 18.06 306.60 17.55Q306.15 17.03 306.15 16.16L306.15 16.16Q306.15 15.39 306.57 14.77Q306.99 14.15 307.82 13.79Q308.66 13.43 309.87 13.43L309.87 13.43Q310.69 13.43 311.50 13.62Q312.30 13.80 312.92 14.17L312.92 14.17L312.19 15.93Q310.98 15.28 309.85 15.28L309.85 15.28Q309.14 15.28 308.82 15.49Q308.50 15.70 308.50 16.04L308.50 16.04Q308.50 16.37 308.88 16.54Q309.27 16.71 310.12 16.89L310.12 16.89Q311.08 17.10 311.71 17.33Q312.34 17.56 312.80 18.07Q313.26 18.58 313.26 19.46L313.26 19.46Q313.26 20.21 312.84 20.83Q312.43 21.44 311.58 21.80Q310.74 22.17 309.54 22.17L309.54 22.17Q308.52 22.17 307.56 21.92Q306.60 21.67 306.00 21.24ZM319.63 15.48L317.05 15.48L317.05 13.60L324.57 13.60L324.57 15.48L322.01 15.48L322.01 22L319.63 22L319.63 15.48ZM335.69 22L328.94 22L328.94 13.60L335.54 13.60L335.54 15.44L331.30 15.44L331.30 16.85L335.03 16.85L335.03 18.63L331.30 18.63L331.30 20.17L335.69 20.17L335.69 22ZM342.69 22L340.49 22L340.49 13.60L342.45 13.60L345.40 18.45L348.29 13.60L350.24 13.60L350.26 22L348.08 22L348.06 17.55L345.89 21.17L344.84 21.17L342.69 17.67L342.69 22Z" fill="#FFFFFF" x="126.31"/></svg>