<svg xmlns="http://www.w3.org/2000/svg" viewBox="0 0 23 23"><path d="M11.04 4.061a7.823 7.823 0 0 0-2.54.756c-2.507 1.229-4.161 3.6-4.459 6.391-.091.861-.032 1.203.258 1.493a.984.984 0 0 0 1.403-.001c.215-.215.285-.439.313-1.001a5.848 5.848 0 0 1 .669-2.46C7.531 7.6 9.079 6.456 10.94 6.093c.499-.097 1.621-.097 2.12 0a6.132 6.132 0 0 1 1.653.569c1.674.849 2.824 2.39 3.194 4.278.108.55.097 1.663-.022 2.22a5.963 5.963 0 0 1-.569 1.599 5.983 5.983 0 0 1-5.007 3.226c-.57.028-.794.098-1.009.313a.984.984 0 0 0-.001 1.403c.291.291.597.345 1.467.257 2.408-.242 4.524-1.51 5.89-3.53 1.004-1.484 1.48-3.391 1.301-5.211-.188-1.911-1.05-3.667-2.461-5.018a7.993 7.993 0 0 0-6.456-2.138" fill-rule="evenodd" /></svg>